{"glyphs":{"0":{"ha":940,"x_min":0,"x_max":0,"o":"m 352 66 b 300 73 334 66 317 69 b 81 421 151 110 81 281 b 300 769 81 561 151 731 b 352 775 317 773 334 775 b 404 769 369 775 387 773 b 623 421 553 731 623 561 b 404 73 623 281 553 110 b 352 66 387 69 369 66 z m 449 2 b 704 421 617 62 704 252 b 449 839 704 590 617 779 b 352 856 418 850 385 856 b 255 839 319 856 286 850 b 0 421 86 779 0 590 b 255 2 0 252 86 62 b 352 -15 286 -9 319 -15 b 449 2 385 -15 418 -9 l 449 2 z "},"1":{"ha":396,"x_min":0,"x_max":0,"o":"m 160 706 b 39 827 160 772 106 827 l 0 827 l 0 746 l 39 746 b 41 746 39 746 40 746 b 79 708 61 745 78 729 l 79 380 l 79 15 l 160 15 l 160 380 l 160 434 l 160 706 z "},"2":{"ha":817,"x_min":0,"x_max":0,"o":"m 296 294 l 51 88 l 51 88 b 38 42 37 77 32 59 b 43 32 40 38 41 35 b 77 15 51 21 63 15 l 580 15 l 580 96 l 185 96 l 321 210 b 578 530 424 296 561 387 b 580 565 580 541 580 553 b 288 856 580 726 449 856 b 269 855 282 856 275 856 b 70 758 192 850 121 815 b 26 694 52 739 38 717 b 5 639 18 676 11 658 l 0 618 l 84 618 b 99 658 87 632 93 645 b 130 704 107 675 118 690 b 274 775 166 744 217 771 b 288 775 279 775 283 775 b 499 564 405 775 499 680 b 398 379 501 492 455 432 b 296 294 366 349 330 321 z "},"3":{"ha":803,"x_min":0,"x_max":0,"o":"m 262 702 l 196 621 b 196 621 196 621 196 621 b 195 621 195 621 195 621 l 143 557 b 138 513 133 544 131 528 b 176 489 145 498 159 489 l 258 489 l 259 489 l 274 489 b 275 489 274 489 275 489 b 326 482 292 489 309 487 l 329 482 b 419 432 363 473 394 455 b 485 278 459 393 485 338 b 274 66 485 161 391 66 b 255 67 268 66 261 67 b 161 99 221 70 189 82 b 86 180 130 119 104 147 l 85 183 l 14 143 b 274 -15 64 47 164 -15 b 566 278 435 -15 566 116 b 476 489 566 359 532 435 b 350 560 441 522 398 547 l 346 561 b 291 569 329 565 310 568 b 280 570 288 570 284 570 l 280 570 b 271 576 276 570 273 572 b 272 587 269 580 270 584 l 325 651 l 469 827 l 365 827 l 0 827 l 0 746 l 298 746 l 262 702 z "},"4":{"ha":797,"x_min":0,"x_max":0,"o":"m 286 827 l 0 185 l 93 185 l 442 185 b 480 147 462 184 479 167 l 480 15 l 561 15 l 561 144 b 440 265 561 211 507 265 l 125 265 l 374 827 l 286 827 z "},"5":{"ha":821,"x_min":0,"x_max":0,"o":"m 292 66 b 103 183 210 66 138 114 b 81 278 89 212 81 244 l 0 278 b 33 143 0 229 12 183 l 33 143 b 292 -15 82 47 182 -15 b 584 278 454 -15 584 116 b 325 568 584 428 471 552 b 294 570 315 569 304 570 l 194 570 b 155 607 173 571 157 587 l 155 740 l 155 827 l 74 827 l 74 740 l 74 610 b 196 489 74 543 129 489 l 292 489 b 503 278 409 489 503 394 b 292 66 503 161 409 66 z "},"6":{"ha":821,"x_min":0,"x_max":0,"o":"m 292 66 b 81 278 176 66 81 161 b 81 287 81 281 81 284 b 92 346 82 307 86 327 b 116 394 98 363 106 379 l 230 563 l 408 827 l 310 827 l 51 443 b 49 440 50 442 50 441 b 48 439 49 439 48 439 b 3 317 24 402 8 360 b 0 278 1 304 0 291 b 37 136 0 226 13 178 b 49 115 41 129 45 122 b 128 36 71 84 97 57 b 292 -15 175 4 231 -15 b 584 278 454 -15 584 116 b 536 438 584 337 567 392 b 511 471 529 450 520 461 b 393 552 480 507 439 535 l 346 482 b 488 358 410 465 463 419 b 503 278 498 333 503 306 b 294 66 503 162 410 68 b 292 66 294 66 293 66 z "},"7":{"ha":839,"x_min":0,"x_max":0,"o":"m 139 15 l 581 645 b 603 715 596 667 603 689 l 603 827 l 598 827 l 522 827 l 0 827 l 0 746 l 522 746 l 522 715 b 515 692 522 706 520 699 l 41 15 l 139 15 z "},"8":{"ha":821,"x_min":0,"x_max":0,"o":"m 120 514 l 118 512 b 0 278 43 457 0 370 b 292 -15 0 116 131 -15 b 584 278 454 -15 584 116 b 292 570 584 439 454 570 b 290 570 291 570 291 570 b 291 570 290 570 291 570 b 190 672 235 570 190 616 b 292 775 190 729 236 775 l 292 856 b 238 848 273 856 255 853 b 109 672 163 825 109 755 b 132 582 109 641 117 610 b 165 541 141 567 152 553 b 120 514 149 533 134 524 z m 292 66 b 81 278 175 66 81 161 b 292 489 81 394 175 489 b 503 278 409 489 503 394 b 292 66 503 161 409 66 l 292 66 z "},"9":{"ha":821,"x_min":0,"x_max":0,"o":"m 292 746 b 503 535 409 746 503 651 b 503 526 503 532 503 529 b 492 467 502 505 499 486 b 469 419 487 450 479 434 l 354 249 l 177 -15 l 274 -15 l 533 369 b 535 373 534 370 535 372 b 536 374 536 373 536 373 b 582 495 561 411 576 452 b 584 535 584 508 584 521 b 548 677 584 586 571 635 b 535 697 544 684 540 691 b 457 776 514 729 487 756 b 292 827 410 808 353 827 b 0 535 131 827 0 696 b 48 374 0 475 18 420 b 73 341 56 363 64 352 b 191 261 105 305 145 277 l 238 330 b 97 454 174 347 122 394 b 81 535 86 479 81 507 b 290 746 81 651 174 745 b 292 746 291 746 292 746 z "},"\u0000":{"ha":903,"x_min":0,"x_max":0,"o":""},"\r":{"ha":640,"x_min":0,"x_max":0,"o":""}," ":{"ha":640,"x_min":0,"x_max":0,"o":""},"!":{"ha":379,"x_min":0,"x_max":0,"o":"m 31 212 l 111 212 l 111 889 l 31 889 l 31 212 z m 142 71 b 71 142 142 111 111 142 b 0 71 32 142 0 111 b 71 0 0 32 32 0 b 142 71 111 0 142 32 l 142 71 z "},"\"":{"ha":526,"x_min":0,"x_max":0,"o":"m 236 612 l 291 816 l 177 816 l 171 613 l 236 612 z m 65 612 l 119 816 l 5 816 l 0 613 l 65 612 l 65 612 z "},"#":{"ha":1014,"x_min":0,"x_max":0,"o":"m 491 254 l 254 254 l 290 472 l 527 472 l 491 254 z m 13 254 l 0 172 l 157 172 l 128 0 l 211 0 l 240 172 l 477 172 l 448 0 l 531 0 l 560 172 l 715 172 l 729 254 l 574 254 l 611 472 l 765 472 l 778 554 l 624 554 l 653 726 l 570 726 l 541 554 l 304 554 l 333 726 l 250 726 l 221 554 l 63 554 l 49 472 l 207 472 l 171 254 l 13 254 l 13 254 z "},"$":{"ha":822,"x_min":0,"x_max":0,"o":"m 344 79 l 344 517 b 428 458 374 499 403 480 b 505 285 477 413 505 359 b 505 283 505 284 505 284 b 473 172 505 243 493 205 b 394 98 453 141 426 116 b 386 94 392 97 389 95 l 385 94 b 344 79 372 87 358 82 z m 188 634 b 218 603 197 623 207 613 b 268 565 234 589 250 576 l 268 74 b 250 77 262 75 256 76 b 234 81 245 78 240 79 b 114 171 184 95 141 128 b 81 285 93 204 81 243 l 0 285 b 43 131 0 230 15 178 b 132 40 66 94 96 63 b 256 -6 169 16 211 0 l 268 -8 l 268 -109 l 304 -109 l 308 -109 l 344 -109 l 344 -4 l 351 -3 b 397 11 367 1 382 5 b 435 28 410 16 423 22 b 525 105 469 47 500 73 b 538 125 529 112 534 118 b 586 285 570 172 586 228 b 526 470 586 352 567 415 b 290 649 462 556 372 585 b 203 823 228 696 207 753 l 122 823 b 188 634 126 755 143 689 l 188 634 z "},"&":{"ha":944,"x_min":0,"x_max":0,"o":"m 241 487 l 448 261 l 494 211 b 241 487 155 0 0 383 z m 505 314 l 298 540 b 377 865 169 681 172 865 b 494 826 420 865 460 852 b 547 765 516 809 533 788 l 614 804 l 614 804 b 542 887 596 836 571 864 b 377 943 494 924 437 943 b 158 834 290 943 203 914 b 192 550 108 743 138 635 b 53 264 88 496 24 387 b 231 81 74 174 142 105 b 547 153 341 51 455 93 l 651 40 l 708 93 l 505 314 l 505 314 z "},"'":{"ha":356,"x_min":0,"x_max":0,"o":"m 65 612 l 119 816 l 5 816 l 0 613 l 65 612 z "},"(":{"ha":454,"x_min":0,"x_max":0,"o":"m 0 456 b 133 -109 0 258 48 69 l 218 -109 b 82 456 132 61 82 278 b 218 1022 82 635 132 852 l 133 1022 b 0 456 48 844 0 655 z "},")":{"ha":454,"x_min":0,"x_max":0,"o":"m 136 456 b 0 -109 136 278 86 61 l 86 -109 b 218 456 171 69 218 258 b 86 1022 218 655 171 844 l 0 1022 b 136 456 86 852 136 635 z "},"*":{"ha":556,"x_min":0,"x_max":0,"o":"m 220 648 l 275 730 l 212 769 l 160 682 l 108 769 l 45 730 l 100 648 l 0 652 l 0 579 l 98 579 l 45 500 l 108 462 l 160 548 l 212 462 l 275 500 l 221 579 l 320 579 l 320 652 l 220 648 z "},"+":{"ha":746,"x_min":0,"x_max":0,"o":"m 0 296 l 0 215 l 215 215 l 215 0 l 296 0 l 296 215 l 510 215 l 510 296 l 296 296 l 296 510 l 215 510 l 215 296 l 0 296 z "},",":{"ha":356,"x_min":0,"x_max":0,"o":"m 65 -82 l 119 122 l 5 122 l 0 -82 l 65 -82 z "},"-":{"ha":651,"x_min":0,"x_max":0,"o":"m 0 298 l 0 217 l 416 217 l 416 298 l 0 298 z "},".":{"ha":379,"x_min":0,"x_max":0,"o":"m 71 0 b 142 71 111 0 142 32 b 71 142 142 111 111 142 b 0 71 32 142 0 111 b 71 0 0 32 32 0 z "},"/":{"ha":686,"x_min":0,"x_max":0,"o":"m 361 812 l 0 0 l 89 0 l 450 812 l 361 812 z "},":":{"ha":379,"x_min":0,"x_max":0,"o":"m 71 518 b 142 589 111 518 142 550 b 71 661 142 629 111 661 b 0 589 32 661 0 629 b 71 518 0 550 32 518 z m 0 71 b 71 0 0 32 32 0 b 142 71 111 0 142 32 b 71 142 142 111 111 142 b 0 71 32 142 0 111 l 0 71 z "},";":{"ha":379,"x_min":0,"x_max":0,"o":"m 0 605 b 71 534 0 566 32 534 b 142 605 111 534 142 566 b 71 677 142 645 111 677 b 0 605 32 677 0 645 z m 74 -81 l 128 123 l 14 123 l 9 -81 l 74 -81 l 74 -81 z "},"=":{"ha":733,"x_min":0,"x_max":0,"o":"m 0 326 l 497 326 l 497 407 l 0 407 l 0 326 z m 0 190 l 0 109 l 497 109 l 497 190 l 0 190 l 0 190 z "},"?":{"ha":749,"x_min":0,"x_max":0,"o":"m 313 71 b 242 142 313 111 281 142 b 171 71 203 142 171 111 b 242 0 171 32 203 0 b 313 71 281 0 313 32 z m 202 212 l 283 212 b 295 363 283 254 277 320 b 304 379 297 369 300 374 b 305 381 304 380 305 380 b 306 383 306 382 306 382 b 371 461 325 411 347 437 b 441 529 394 484 418 506 b 493 601 463 550 480 575 b 513 689 506 629 513 659 b 483 800 513 733 502 770 b 259 907 438 871 351 907 b 30 810 171 907 86 875 b 0 766 19 797 9 782 l 71 727 b 259 826 109 796 184 826 b 432 689 345 826 432 786 b 420 637 432 671 428 654 b 385 587 411 619 399 601 b 315 519 361 564 338 542 b 238 427 286 491 262 459 b 202 212 195 367 202 298 l 202 212 z "},"A":{"ha":1114,"x_min":0,"x_max":0,"o":"m 419 812 b 307 738 369 812 326 784 l 0 0 l 88 0 l 382 707 b 419 732 388 723 402 732 l 439 732 l 459 732 b 496 707 476 732 490 723 l 790 0 l 878 0 l 571 738 b 459 812 552 784 509 812 l 439 812 l 419 812 z "},"B":{"ha":826,"x_min":0,"x_max":0,"o":"m 40 366 l 40 366 l 40 366 l 367 366 b 509 223 445 366 509 301 b 367 81 509 145 445 81 l 40 81 l 0 81 l 0 0 l 40 0 l 40 0 l 367 0 b 590 223 490 0 590 100 b 495 406 590 299 552 366 b 590 589 552 447 590 514 b 367 812 590 712 490 812 l 40 812 l 0 812 l 0 731 l 40 731 l 40 731 l 367 731 b 509 589 445 731 509 667 b 367 447 509 511 445 447 l 40 447 l 0 447 l 0 366 l 40 366 z "},"C":{"ha":867,"x_min":0,"x_max":0,"o":"m 0 407 b 406 1 0 184 183 1 l 550 1 l 630 1 l 630 81 l 550 81 l 550 82 l 406 82 b 81 407 228 82 81 228 b 406 732 81 586 228 732 l 550 732 l 630 732 l 630 812 l 550 812 l 383 812 b 0 407 170 800 0 622 z "},"D":{"ha":867,"x_min":0,"x_max":0,"o":"m 630 407 b 247 812 630 622 460 800 l 80 812 l 0 812 l 0 732 l 80 732 l 224 732 b 549 407 402 732 549 586 b 224 82 549 228 402 82 l 80 82 l 80 81 l 0 81 l 0 1 l 80 1 l 224 1 b 630 407 447 1 630 184 z "},"E":{"ha":786,"x_min":0,"x_max":0,"o":"m 469 366 l 469 447 l 0 447 l 0 366 l 469 366 z m 550 81 l 0 81 l 0 0 l 550 0 l 550 81 l 550 81 z m 0 731 l 550 731 l 550 812 l 0 812 l 0 731 l 0 731 z "},"F":{"ha":786,"x_min":0,"x_max":0,"o":"m 0 731 l 550 731 l 550 812 l 0 812 l 0 731 z m 121 447 b 0 325 55 447 0 392 l 0 54 l 0 0 l 81 0 l 81 328 b 120 366 83 348 99 365 b 121 366 120 366 121 366 l 184 366 l 469 366 l 469 447 l 184 447 l 121 447 l 121 447 z "},"G":{"ha":1014,"x_min":0,"x_max":0,"o":"m 426 62 b 81 407 236 62 81 217 b 426 753 81 598 236 753 l 426 834 b 0 407 191 834 0 643 b 426 -19 0 172 191 -19 b 778 166 572 -19 701 54 l 778 166 l 778 447 l 426 447 l 426 366 l 697 366 l 697 192 b 426 62 633 113 536 62 z "},"H":{"ha":886,"x_min":0,"x_max":0,"o":"m 81 0 l 0 0 l 0 170 l 0 224 l 81 224 l 81 170 l 81 0 z m 650 0 l 650 812 l 569 812 l 569 447 l 81 447 l 81 812 l 0 812 l 0 366 l 569 366 l 569 0 l 650 0 l 650 0 z "},"I":{"ha":317,"x_min":0,"x_max":0,"o":"m 81 0 l 81 812 l 0 812 l 0 0 l 81 0 z "},"J":{"ha":569,"x_min":0,"x_max":0,"o":"m 101 0 b 333 232 228 0 333 104 l 333 812 l 252 812 l 252 232 b 101 81 252 149 184 81 l 0 81 l 0 0 l 101 0 z "},"K":{"ha":906,"x_min":0,"x_max":0,"o":"m 81 447 l 81 812 l 0 812 l 0 0 l 81 0 l 81 144 l 81 272 l 81 366 l 161 366 l 301 366 b 336 346 316 366 328 358 l 469 115 l 500 61 b 605 0 522 22 561 0 l 669 0 l 669 81 l 605 81 b 570 101 590 81 578 88 l 421 360 l 394 406 l 614 731 l 669 812 l 605 812 l 571 812 l 568 807 l 336 464 b 302 447 328 453 316 447 l 161 447 l 81 447 z "},"L":{"ha":786,"x_min":0,"x_max":0,"o":"m 0 812 l 0 232 b 232 0 0 104 104 0 l 333 0 l 550 0 l 550 81 l 333 81 l 232 81 b 81 232 149 81 81 149 l 81 812 l 0 812 z "},"M":{"ha":1182,"x_min":0,"x_max":0,"o":"m 81 0 l 0 0 l 0 569 l 81 569 l 81 0 z m 344 426 b 449 366 366 388 405 366 l 465 366 l 481 366 l 497 366 b 601 426 541 366 579 388 l 602 426 l 617 453 l 668 541 l 766 711 b 801 731 774 724 786 731 l 864 731 l 864 0 l 946 0 l 946 731 l 946 812 l 864 812 l 801 812 b 696 752 757 812 718 790 l 665 698 l 532 467 b 497 447 524 454 511 447 l 481 447 l 465 447 l 449 447 b 414 467 434 447 421 454 l 281 698 l 250 752 b 144 812 227 790 189 812 l 80 812 l 0 812 l 0 731 l 80 731 l 144 731 b 179 711 159 731 172 724 l 286 526 l 302 499 l 344 426 l 344 426 l 344 426 z "},"N":{"ha":957,"x_min":0,"x_max":0,"o":"m 0 0 l 0 569 l 81 569 l 81 0 l 0 0 z m 0 732 l 0 732 l 81 732 l 151 732 b 188 707 168 732 182 723 l 239 589 l 238 589 l 459 74 b 570 0 478 28 521 0 l 640 0 l 721 0 l 721 812 l 640 812 l 640 81 l 570 81 b 533 106 553 81 540 90 l 483 223 l 483 223 l 263 739 b 151 812 243 784 201 812 l 81 812 l 0 812 l 0 732 z "},"O":{"ha":1089,"x_min":0,"x_max":0,"o":"m 426 62 b 81 407 236 62 81 216 b 426 753 81 598 236 753 b 772 407 617 753 772 598 b 426 62 772 216 617 62 z m 426 -19 b 853 407 662 -19 853 172 b 426 834 853 643 662 834 b 0 407 191 834 0 643 b 426 -19 0 172 191 -19 l 426 -19 z "},"P":{"ha":796,"x_min":0,"x_max":0,"o":"m 232 392 b 0 161 104 392 0 288 l 0 0 l 80 0 l 80 161 b 81 174 80 165 81 170 b 219 312 87 247 146 305 b 232 312 223 312 227 312 l 327 312 b 494 392 393 317 452 347 b 560 562 535 437 560 497 b 310 812 560 700 447 812 l 232 812 l 191 812 l 0 812 l 0 731 l 191 731 l 232 731 l 310 731 b 479 562 403 731 479 655 b 310 392 479 469 403 392 l 232 392 z "},"Q":{"ha":1089,"x_min":0,"x_max":0,"o":"m 0 407 b 426 -19 0 172 191 -19 l 426 62 b 81 407 236 62 81 217 b 426 753 81 598 236 753 b 772 407 617 753 772 598 b 671 164 772 312 733 226 l 621 251 l 620 252 b 516 312 598 290 560 312 l 452 312 l 452 231 l 516 231 b 551 210 530 231 543 223 l 555 203 l 683 -19 l 684 -20 l 684 -21 b 789 -81 706 -59 745 -81 l 853 -81 l 853 0 l 789 0 b 754 20 774 0 761 7 l 713 91 b 853 407 799 169 853 282 b 426 834 853 643 662 834 b 0 407 191 834 0 643 z "},"R":{"ha":796,"x_min":0,"x_max":0,"o":"m 40 312 l 83 312 l 223 312 b 258 291 238 312 251 304 l 391 61 b 496 0 413 22 452 0 l 560 0 l 560 81 l 496 81 b 461 101 481 81 469 88 l 339 313 b 359 317 346 314 353 315 b 560 562 474 340 560 441 b 310 812 560 700 447 812 l 40 812 l 0 812 l 0 731 l 40 731 l 40 731 l 310 731 b 479 562 403 731 479 655 b 310 393 479 469 403 393 l 293 393 l 40 393 l 0 393 l 0 312 l 40 312 z "},"S":{"ha":822,"x_min":0,"x_max":0,"o":"m 0 274 b 43 121 0 220 15 167 b 189 0 77 65 129 23 b 293 -19 221 -12 257 -19 b 397 0 329 -19 364 -12 b 538 114 454 22 504 61 b 586 274 570 162 586 217 b 526 459 586 342 567 404 b 290 638 462 546 372 574 b 203 812 228 686 207 742 l 122 812 b 188 623 126 744 143 678 b 505 274 294 496 505 484 b 293 62 505 157 410 62 b 250 66 279 62 264 63 b 114 160 193 78 144 113 b 81 274 93 193 81 232 l 0 274 z "},"T":{"ha":886,"x_min":0,"x_max":0,"o":"m 0 731 l 285 731 l 285 0 l 366 0 l 366 731 l 650 731 l 650 812 l 366 812 l 285 812 l 0 812 l 0 731 z "},"U":{"ha":886,"x_min":0,"x_max":0,"o":"m 81 305 l 81 812 l 0 812 l 0 305 b 325 -20 0 126 146 -20 b 650 305 504 -20 650 126 l 650 812 l 569 812 l 569 305 b 325 61 569 171 459 61 b 81 305 191 61 81 171 z "},"V":{"ha":1114,"x_min":0,"x_max":0,"o":"m 419 0 l 439 0 l 459 0 b 571 75 509 0 552 28 l 878 812 l 790 812 l 496 106 b 459 81 490 90 476 81 l 439 81 l 419 81 b 382 106 402 81 388 90 l 88 812 l 0 812 l 307 75 b 419 0 326 28 369 0 z "},"W":{"ha":1465,"x_min":0,"x_max":0,"o":"m 770 0 l 790 0 l 810 0 b 922 75 860 0 902 28 l 1229 812 l 1141 812 l 847 106 b 810 81 840 90 827 81 l 790 81 l 770 81 b 732 106 752 81 739 90 l 438 812 l 351 812 l 570 284 l 496 106 b 459 81 490 90 476 81 l 439 81 l 419 81 b 382 106 402 81 388 90 l 88 812 l 0 812 l 307 75 b 419 0 326 28 369 0 l 439 0 l 459 0 b 571 75 509 0 552 28 l 614 179 l 658 75 b 770 0 677 28 720 0 z "},"X":{"ha":1060,"x_min":0,"x_max":0,"o":"m 272 401 l 248 360 l 99 101 b 64 81 92 88 79 81 l 0 81 l 0 0 l 64 0 b 169 61 109 0 147 22 l 200 115 l 333 346 b 369 366 341 358 354 366 l 454 366 b 490 346 469 366 482 358 l 623 115 l 654 61 b 759 0 676 22 715 0 l 823 0 l 823 81 l 759 81 b 724 101 744 81 732 88 l 603 311 l 551 401 l 548 406 l 551 411 l 575 453 l 724 711 b 759 731 732 724 744 731 l 823 731 l 823 812 l 759 812 b 654 752 715 812 676 790 l 623 698 l 490 467 b 454 447 482 454 469 447 l 369 447 b 333 467 354 447 341 454 l 200 698 l 169 752 b 64 812 147 790 109 812 l 0 812 l 0 731 l 64 731 b 99 711 79 731 92 724 l 222 499 l 272 411 l 275 406 l 272 401 z "},"Y":{"ha":1060,"x_min":0,"x_max":0,"o":"m 333 467 l 200 698 l 169 752 b 64 812 147 790 108 812 l 0 812 l 0 731 l 64 731 b 99 711 79 731 92 724 l 206 526 l 222 499 l 263 426 l 264 426 b 369 366 286 388 324 366 l 371 366 l 371 0 l 452 0 l 452 366 l 455 366 b 559 426 499 366 537 388 l 560 426 l 575 453 l 626 541 l 724 711 b 759 731 731 724 744 731 l 823 731 l 823 812 l 759 812 b 654 752 715 812 676 790 l 623 698 l 490 467 b 454 447 482 454 469 447 l 369 447 b 333 467 354 447 341 454 z "},"Z":{"ha":879,"x_min":0,"x_max":0,"o":"m 0 731 l 522 731 l 522 700 b 515 677 522 691 520 685 l 41 0 l 139 0 l 581 631 b 603 700 596 652 603 674 l 603 812 l 598 812 l 522 812 l 0 812 l 0 731 z m 407 80 l 407 80 l 643 80 l 643 0 l 301 0 l 356 80 l 407 80 z "},"a":{"ha":1114,"x_min":0,"x_max":0,"o":"m 419 812 b 307 738 369 812 326 784 l 0 0 l 88 0 l 382 707 b 419 732 388 723 402 732 l 439 732 l 459 732 b 496 707 476 732 490 723 l 790 0 l 878 0 l 571 738 b 459 812 552 784 509 812 l 439 812 l 419 812 z "},"b":{"ha":826,"x_min":0,"x_max":0,"o":"m 40 366 l 40 366 l 40 366 l 367 366 b 509 223 445 366 509 301 b 367 81 509 145 445 81 l 40 81 l 0 81 l 0 0 l 40 0 l 40 0 l 367 0 b 590 223 490 0 590 100 b 495 406 590 299 552 366 b 590 589 552 447 590 514 b 367 812 590 712 490 812 l 40 812 l 0 812 l 0 731 l 40 731 l 40 731 l 367 731 b 509 589 445 731 509 667 b 367 447 509 511 445 447 l 40 447 l 0 447 l 0 366 l 40 366 z "},"c":{"ha":867,"x_min":0,"x_max":0,"o":"m 0 407 b 406 1 0 184 183 1 l 550 1 l 630 1 l 630 81 l 550 81 l 550 82 l 406 82 b 81 407 228 82 81 228 b 406 732 81 586 228 732 l 550 732 l 630 732 l 630 812 l 550 812 l 383 812 b 0 407 170 800 0 622 z "},"d":{"ha":867,"x_min":0,"x_max":0,"o":"m 630 407 b 247 812 630 622 460 800 l 80 812 l 0 812 l 0 732 l 80 732 l 224 732 b 549 407 402 732 549 586 b 224 82 549 228 402 82 l 80 82 l 80 81 l 0 81 l 0 1 l 80 1 l 224 1 b 630 407 447 1 630 184 z "},"e":{"ha":786,"x_min":0,"x_max":0,"o":"m 469 366 l 469 447 l 0 447 l 0 366 l 469 366 z m 550 81 l 0 81 l 0 0 l 550 0 l 550 81 l 550 81 z m 0 731 l 550 731 l 550 812 l 0 812 l 0 731 l 0 731 z "},"f":{"ha":786,"x_min":0,"x_max":0,"o":"m 0 731 l 550 731 l 550 812 l 0 812 l 0 731 z m 121 447 b 0 325 55 447 0 392 l 0 54 l 0 0 l 81 0 l 81 328 b 120 366 83 348 99 365 b 121 366 120 366 121 366 l 184 366 l 469 366 l 469 447 l 184 447 l 121 447 l 121 447 z "},"g":{"ha":1014,"x_min":0,"x_max":0,"o":"m 426 62 b 81 407 236 62 81 217 b 426 753 81 598 236 753 l 426 834 b 0 407 191 834 0 643 b 426 -19 0 172 191 -19 b 778 166 572 -19 701 54 l 778 166 l 778 447 l 426 447 l 426 366 l 697 366 l 697 192 b 426 62 633 113 536 62 z "},"h":{"ha":886,"x_min":0,"x_max":0,"o":"m 81 0 l 0 0 l 0 170 l 0 224 l 81 224 l 81 170 l 81 0 z m 650 0 l 650 812 l 569 812 l 569 447 l 81 447 l 81 812 l 0 812 l 0 366 l 569 366 l 569 0 l 650 0 l 650 0 z "},"i":{"ha":317,"x_min":0,"x_max":0,"o":"m 81 0 l 81 812 l 0 812 l 0 0 l 81 0 z "},"j":{"ha":569,"x_min":0,"x_max":0,"o":"m 101 0 b 333 232 228 0 333 104 l 333 812 l 252 812 l 252 232 b 101 81 252 149 184 81 l 0 81 l 0 0 l 101 0 z "},"k":{"ha":906,"x_min":0,"x_max":0,"o":"m 81 447 l 81 812 l 0 812 l 0 0 l 81 0 l 81 144 l 81 272 l 81 366 l 161 366 l 301 366 b 336 346 316 366 328 358 l 469 115 l 500 61 b 605 0 522 22 561 0 l 669 0 l 669 81 l 605 81 b 570 101 590 81 578 88 l 421 360 l 394 406 l 614 731 l 669 812 l 605 812 l 571 812 l 568 807 l 336 464 b 302 447 328 453 316 447 l 161 447 l 81 447 z "},"l":{"ha":786,"x_min":0,"x_max":0,"o":"m 0 812 l 0 232 b 232 0 0 104 104 0 l 333 0 l 550 0 l 550 81 l 333 81 l 232 81 b 81 232 149 81 81 149 l 81 812 l 0 812 z "},"m":{"ha":1182,"x_min":0,"x_max":0,"o":"m 81 0 l 0 0 l 0 569 l 81 569 l 81 0 z m 344 426 b 449 366 366 388 405 366 l 465 366 l 481 366 l 497 366 b 601 426 541 366 579 388 l 602 426 l 617 453 l 668 541 l 766 711 b 801 731 774 724 786 731 l 864 731 l 864 0 l 946 0 l 946 731 l 946 812 l 864 812 l 801 812 b 696 752 757 812 718 790 l 665 698 l 532 467 b 497 447 524 454 511 447 l 481 447 l 465 447 l 449 447 b 414 467 434 447 421 454 l 281 698 l 250 752 b 144 812 227 790 189 812 l 80 812 l 0 812 l 0 731 l 80 731 l 144 731 b 179 711 159 731 172 724 l 286 526 l 302 499 l 344 426 l 344 426 l 344 426 z "},"n":{"ha":957,"x_min":0,"x_max":0,"o":"m 0 0 l 0 569 l 81 569 l 81 0 l 0 0 z m 0 732 l 0 732 l 81 732 l 151 732 b 188 707 168 732 182 723 l 239 589 l 238 589 l 459 74 b 570 0 478 28 521 0 l 640 0 l 721 0 l 721 812 l 640 812 l 640 81 l 570 81 b 533 106 553 81 540 90 l 483 223 l 483 223 l 263 739 b 151 812 243 784 201 812 l 81 812 l 0 812 l 0 732 z "},"o":{"ha":1089,"x_min":0,"x_max":0,"o":"m 426 62 b 81 407 236 62 81 216 b 426 753 81 598 236 753 b 772 407 617 753 772 598 b 426 62 772 216 617 62 z m 426 -19 b 853 407 662 -19 853 172 b 426 834 853 643 662 834 b 0 407 191 834 0 643 b 426 -19 0 172 191 -19 l 426 -19 z "},"p":{"ha":796,"x_min":0,"x_max":0,"o":"m 232 392 b 0 161 104 392 0 288 l 0 0 l 80 0 l 80 161 b 81 174 80 165 81 170 b 219 312 87 247 146 305 b 232 312 223 312 227 312 l 327 312 b 494 392 393 317 452 347 b 560 562 535 437 560 497 b 310 812 560 700 447 812 l 232 812 l 191 812 l 0 812 l 0 731 l 191 731 l 232 731 l 310 731 b 479 562 403 731 479 655 b 310 392 479 469 403 392 l 232 392 z "},"q":{"ha":1089,"x_min":0,"x_max":0,"o":"m 0 407 b 426 -19 0 172 191 -19 l 426 62 b 81 407 236 62 81 217 b 426 753 81 598 236 753 b 772 407 617 753 772 598 b 671 164 772 312 733 226 l 621 251 l 620 252 b 516 312 598 290 560 312 l 452 312 l 452 231 l 516 231 b 551 210 530 231 543 223 l 555 203 l 683 -19 l 684 -20 l 684 -21 b 789 -81 706 -59 745 -81 l 853 -81 l 853 0 l 789 0 b 754 20 774 0 761 7 l 713 91 b 853 407 799 169 853 282 b 426 834 853 643 662 834 b 0 407 191 834 0 643 z "},"r":{"ha":796,"x_min":0,"x_max":0,"o":"m 40 312 l 83 312 l 223 312 b 258 291 238 312 251 304 l 391 61 b 496 0 413 22 452 0 l 560 0 l 560 81 l 496 81 b 461 101 481 81 469 88 l 339 313 b 359 317 346 314 353 315 b 560 562 474 340 560 441 b 310 812 560 700 447 812 l 40 812 l 0 812 l 0 731 l 40 731 l 40 731 l 310 731 b 479 562 403 731 479 655 b 310 393 479 469 403 393 l 293 393 l 40 393 l 0 393 l 0 312 l 40 312 z "},"s":{"ha":822,"x_min":0,"x_max":0,"o":"m 0 274 b 43 121 0 220 15 167 b 189 0 77 65 129 23 b 293 -19 221 -12 257 -19 b 397 0 329 -19 364 -12 b 538 114 454 22 504 61 b 586 274 570 162 586 217 b 526 459 586 342 567 404 b 290 638 462 546 372 574 b 203 812 228 686 207 742 l 122 812 b 188 623 126 744 143 678 b 505 274 294 496 505 484 b 293 62 505 157 410 62 b 250 66 279 62 264 63 b 114 160 193 78 144 113 b 81 274 93 193 81 232 l 0 274 z "},"t":{"ha":886,"x_min":0,"x_max":0,"o":"m 0 731 l 285 731 l 285 0 l 366 0 l 366 731 l 650 731 l 650 812 l 366 812 l 285 812 l 0 812 l 0 731 z "},"u":{"ha":886,"x_min":0,"x_max":0,"o":"m 81 305 l 81 812 l 0 812 l 0 305 b 325 -20 0 126 146 -20 b 650 305 504 -20 650 126 l 650 812 l 569 812 l 569 305 b 325 61 569 171 459 61 b 81 305 191 61 81 171 z "},"v":{"ha":1114,"x_min":0,"x_max":0,"o":"m 419 0 l 439 0 l 459 0 b 571 75 509 0 552 28 l 878 812 l 790 812 l 496 106 b 459 81 490 90 476 81 l 439 81 l 419 81 b 382 106 402 81 388 90 l 88 812 l 0 812 l 307 75 b 419 0 326 28 369 0 z "},"w":{"ha":1465,"x_min":0,"x_max":0,"o":"m 770 0 l 790 0 l 810 0 b 922 75 860 0 902 28 l 1229 812 l 1141 812 l 847 106 b 810 81 840 90 827 81 l 790 81 l 770 81 b 732 106 752 81 739 90 l 438 812 l 351 812 l 570 284 l 496 106 b 459 81 490 90 476 81 l 439 81 l 419 81 b 382 106 402 81 388 90 l 88 812 l 0 812 l 307 75 b 419 0 326 28 369 0 l 439 0 l 459 0 b 571 75 509 0 552 28 l 614 179 l 658 75 b 770 0 677 28 720 0 z "},"x":{"ha":1060,"x_min":0,"x_max":0,"o":"m 272 401 l 248 360 l 99 101 b 64 81 92 88 79 81 l 0 81 l 0 0 l 64 0 b 169 61 109 0 147 22 l 200 115 l 333 346 b 369 366 341 358 354 366 l 454 366 b 490 346 469 366 482 358 l 623 115 l 654 61 b 759 0 676 22 715 0 l 823 0 l 823 81 l 759 81 b 724 101 744 81 732 88 l 603 311 l 551 401 l 548 406 l 551 411 l 575 453 l 724 711 b 759 731 732 724 744 731 l 823 731 l 823 812 l 759 812 b 654 752 715 812 676 790 l 623 698 l 490 467 b 454 447 482 454 469 447 l 369 447 b 333 467 354 447 341 454 l 200 698 l 169 752 b 64 812 147 790 109 812 l 0 812 l 0 731 l 64 731 b 99 711 79 731 92 724 l 222 499 l 272 411 l 275 406 l 272 401 z "},"y":{"ha":1060,"x_min":0,"x_max":0,"o":"m 333 467 l 200 698 l 169 752 b 64 812 147 790 108 812 l 0 812 l 0 731 l 64 731 b 99 711 79 731 92 724 l 206 526 l 222 499 l 263 426 l 264 426 b 369 366 286 388 324 366 l 371 366 l 371 0 l 452 0 l 452 366 l 455 366 b 559 426 499 366 537 388 l 560 426 l 575 453 l 626 541 l 724 711 b 759 731 731 724 744 731 l 823 731 l 823 812 l 759 812 b 654 752 715 812 676 790 l 623 698 l 490 467 b 454 447 482 454 469 447 l 369 447 b 333 467 354 447 341 454 z "},"z":{"ha":879,"x_min":0,"x_max":0,"o":"m 0 731 l 522 731 l 522 700 b 515 677 522 691 520 685 l 41 0 l 139 0 l 581 631 b 603 700 596 652 603 674 l 603 812 l 598 812 l 522 812 l 0 812 l 0 731 z m 407 80 l 407 80 l 643 80 l 643 0 l 301 0 l 356 80 l 407 80 z "}," ":{"ha":640,"x_min":0,"x_max":0,"o":""}}}
